<svg version="1.0" xmlns="http://www.w3.org/2000/svg" width="300" height="300" viewBox="0 0 300.000000 300.000000" preserveAspectRatio="xMidYMid " class="svg" style="width: 256px; height: 256px;">
<g transform="translate(0.000000,300.000000) scale(0.100000,-0.100000)" fill="currentColor" stroke="currentColor">
<path class="node" id="node1" d="M1686 2859 c-16 -12 -35 -38 -43 -57 -8 -19 -65 -93 -126 -165 -550
-639 -503 -587 -536 -581 -60 12 -113 -41 -96 -97 4 -12 225 -240 490 -506
481 -482 483 -483 524 -483 36 0 44 4 61 33 12 19 18 40 14 52 -17 57 -16 59
63 125 42 36 120 103 173 150 53 47 123 108 155 135 33 28 100 86 150 130 49
44 120 106 158 139 37 32 72 66 77 77 16 29 2 66 -31 80 -41 17 -18 35 -439
-336 -267 -235 -402 -350 -413 -353 -7 -1 -183 168 -391 377 l-380 380 25 29
c13 17 121 142 239 278 118 136 238 275 267 308 28 34 67 79 87 101 l35 40 16
-39 c30 -72 9 -113 -93 -181 -65 -43 -130 -120 -138 -163 -15 -79 68 -161 163
-162 51 0 55 2 124 66 40 36 98 78 130 94 66 34 155 48 187 31 28 -15 29 -63
2 -122 -28 -63 -26 -95 10 -131 28 -28 35 -30 83 -26 34 3 64 13 84 27 82 61
180 29 255 -84 26 -40 49 -65 60 -65 31 0 21 40 -30 126 -162 273 -521 651
-715 755 -81 43 -161 50 -201 18z"></path>
<path class="node" id="node2" d="M747 1878 c-24 -19 -38 -64 -28 -90 5 -13 227 -240 493 -505 423
-423 487 -483 514 -483 63 0 100 61 70 117 -8 15 -228 241 -488 501 -446 444
-476 472 -509 472 -19 0 -43 -6 -52 -12z"></path>
<path class="node" id="node3" d="M531 1655 l-95 -94 117 -120 c65 -66 124 -136 132 -155 31 -73 12
-156 -61 -268 -61 -95 -126 -139 -279 -190 -188 -62 -281 -153 -304 -296 -26
-163 46 -302 199 -383 38 -20 59 -24 140 -24 81 0 103 4 151 26 107 50 162
126 239 324 40 102 79 164 141 219 61 55 128 88 188 93 76 8 128 -22 255 -147
62 -60 117 -110 122 -110 15 0 184 174 184 189 0 14 -1012 1031 -1026 1031 -5
0 -51 -43 -103 -95z"></path>
<path class="node" id="node4" d="M2700 1588 c-12 -40 -28 -89 -35 -108 -7 -19 -24 -66 -39 -105 -14
-38 -50 -133 -80 -210 -31 -77 -60 -164 -67 -193 -30 -140 35 -262 162 -307
59 -21 110 -19 171 9 95 43 148 121 151 222 1 47 -7 70 -75 206 -87 176 -133
311 -143 418 -12 125 -12 131 -17 136 -3 2 -15 -28 -28 -68z"></path>
</g>
<g transform="translate(0.000000,300.000000) scale(0.100000,-0.100000)" fill="currentColor" stroke="currentColor">

</g>
</svg>